<svg aria-hidden="true" style="position: absolute; width: 0px; height: 0px; overflow-x: hidden; overflow-y: hidden;" version="1.1" xmlns="http://www.w3.org/2000/svg"><defs><symbol id="icon-brush" viewBox="0 0 32 32"><path fill="none" stroke="#fafafa" style="" stroke-linejoin="round" stroke-linecap="round" stroke-miterlimit="4" stroke-width="2.6667" d="M17.037 20 12 14.963"/><path fill="none" stroke="#fafafa" style="" stroke-linejoin="round" stroke-linecap="round" stroke-miterlimit="4" stroke-width="2.6667" d="M2.667 29.333c2.667 0 6.144.456 7.966-1.367a4.668 4.668 0 0 0-6.6-6.6c-1.823 1.822 0 5.3-1.367 7.967z"/><path fill="none" stroke="#fafafa" style="" stroke-linejoin="round" stroke-linecap="round" stroke-miterlimit="4" stroke-width="2.6667" d="M10.667 21.333c-.655-.655-.983-.983-1.168-1.326a2.668 2.668 0 0 1 .05-2.623c.197-.336.537-.65 1.217-1.28L23.924 3.92a2.94 2.94 0 0 1 4.153 4.154L15.894 21.23c-.63.68-.944 1.02-1.28 1.22-.805.474-1.8.494-2.623.05-.342-.186-.67-.514-1.325-1.17z"/></symbol><symbol id="icon-hourglass" viewBox="0 0 32 32"><path fill="none" stroke="#fafafa" style="" stroke-linejoin="round" stroke-linecap="round" stroke-miterlimit="4" stroke-width="2.6667" d="M24.217 2.667H7.783c-.617 0-1.117.5-1.117 1.117a13.4 13.4 0 0 0 3.925 9.475l1.627 1.625c.16.16.242.242.3.32.352.473.352 1.12 0 1.594-.058.076-.14.157-.3.32l-1.626 1.625a13.4 13.4 0 0 0-3.924 9.475c0 .617.5 1.117 1.117 1.117h16.434c.617 0 1.117-.5 1.117-1.117a13.4 13.4 0 0 0-3.925-9.475l-1.627-1.626c-.16-.162-.242-.243-.3-.32a1.332 1.332 0 0 1 0-1.595c.058-.077.14-.158.3-.32l1.626-1.626a13.4 13.4 0 0 0 3.924-9.476c0-.617-.5-1.117-1.117-1.117z"/></symbol><symbol id="icon-message-chat-circle" viewBox="0 0 32 32"><path fill="none" stroke="#fafafa" style="" stroke-linejoin="round" stroke-linecap="round" stroke-miterlimit="4" stroke-width="2.6667" d="M8.126 14.972A10.66 10.66 0 0 1 8 13.334c0-5.89 4.807-10.667 10.737-10.667s10.737 4.776 10.737 10.667c0 1.33-.245 2.605-.693 3.78-.092.243-.14.365-.16.46s-.03.16-.03.257c-.003.098.01.206.036.42l.537 4.36c.058.473.087.71.01.88-.07.15-.192.27-.344.336-.174.075-.41.04-.88-.03l-4.247-.622a2.965 2.965 0 0 0-.434-.048c-.1 0-.17.008-.268.028s-.225.068-.477.163a10.78 10.78 0 0 1-3.787.683c-.558 0-1.105-.042-1.64-.124m-6.923 5.457c3.953 0 7.158-3.283 7.158-7.333s-3.205-7.333-7.158-7.333S3.017 17.95 3.017 22c0 .814.13 1.597.37 2.33.1.308.15.463.167.57.017.11.02.17.014.283-.006.107-.033.227-.086.47l-.815 3.68 3.993-.544a3.16 3.16 0 0 1 .422-.045c.1 0 .153.006.252.026.093.02.232.068.51.166.73.258 1.516.398 2.332.398z"/></symbol><symbol id="icon-user" viewBox="0 0 32 32"><path fill="none" stroke="#fafafa" style="" stroke-linejoin="round" stroke-linecap="round" stroke-miterlimit="4" stroke-width="2.6667" d="M26.667 28c0-1.86 0-2.79-.23-3.548a5.333 5.333 0 0 0-3.556-3.556c-.756-.23-1.686-.23-3.547-.23h-6.667c-1.86 0-2.79 0-3.548.23a5.335 5.335 0 0 0-3.556 3.556c-.23.757-.23 1.687-.23 3.548"/><path fill="none" stroke="#fafafa" style="" stroke-linejoin="round" stroke-linecap="round" stroke-miterlimit="4" stroke-width="2.6667" d="M16 16a6 6 0 1 0 0-12 6 6 0 1 0 0 12z"/></symbol></defs></svg>